<?xml version="1.0" encoding="UTF-8"?>
<!DOCTYPE svg PUBLIC "-//W3C//DTD SVG 1.1//EN" "http://www.w3.org/Graphics/SVG/1.1/DTD/svg11.dtd">
<svg xmlns="http://www.w3.org/2000/svg" version="1.1" width="606px" height="886px" style="shape-rendering:geometricPrecision; text-rendering:geometricPrecision; image-rendering:optimizeQuality; fill-rule:evenodd; clip-rule:evenodd" xmlns:xlink="http://www.w3.org/1999/xlink">
<g><path style="opacity:1" fill="#fefefe" d="M -0.5,-0.5 C 201.5,-0.5 403.5,-0.5 605.5,-0.5C 605.5,294.833 605.5,590.167 605.5,885.5C 403.5,885.5 201.5,885.5 -0.5,885.5C -0.5,590.167 -0.5,294.833 -0.5,-0.5 Z"/></g>
<g><path style="opacity:1" fill="#000000" d="M 299.5,25.5 C 356.997,23.0372 404.497,43.3706 442,86.5C 482.024,139.336 489.69,196.669 465,258.5C 437.794,315.045 392.96,347.545 330.5,356C 259.736,360.206 205.903,332.373 169,272.5C 147.226,230.981 142.56,187.648 155,142.5C 179.875,74.6557 228.042,35.6557 299.5,25.5 Z"/></g>
<g><path style="opacity:1" fill="#010101" d="M 527.5,671.5 C 526.167,671.5 524.833,671.5 523.5,671.5C 523.829,657.323 523.496,643.323 522.5,629.5C 517.521,604.353 502.521,588.853 477.5,583C 465.505,582.5 453.505,582.333 441.5,582.5C 437.925,543.426 416.925,519.926 378.5,512C 334.167,511.333 289.833,511.333 245.5,512C 208.767,521.318 188.767,544.818 185.5,582.5C 171.774,582.073 158.107,582.573 144.5,584C 123.823,590.677 110.656,604.511 105,625.5C 103.913,641.133 103.08,656.8 102.5,672.5C 78.8683,669.267 58.7017,659.267 42,642.5C 31.4619,627.891 25.4619,611.557 24,593.5C 20.1178,513.422 51.9511,452.255 119.5,410C 142.035,397.6 166.035,389.6 191.5,386C 271.5,385.333 351.5,385.333 431.5,386C 508.536,396.716 562.036,437.883 592,509.5C 604.581,544.115 606.914,579.448 599,615.5C 591.328,639.839 575.494,656.339 551.5,665C 543.548,667.487 535.548,669.654 527.5,671.5 Z"/></g>
<g><path style="opacity:1" fill="#010101" d="M 255.5,551.5 C 294.168,551.333 332.835,551.5 371.5,552C 384.746,553.91 393.913,561.076 399,573.5C 400.44,589.776 400.94,606.11 400.5,622.5C 423.502,622.333 446.502,622.5 469.5,623C 475.469,624.298 479.635,627.798 482,633.5C 482.99,705.89 482.657,778.224 481,850.5C 478.578,855.256 474.745,858.09 469.5,859C 365.5,859.667 261.5,859.667 157.5,859C 152.263,858.1 148.429,855.266 146,850.5C 144.343,778.224 144.01,705.89 145,633.5C 147.167,628.667 150.667,625.167 155.5,623C 179.164,622.5 202.831,622.333 226.5,622.5C 226.045,606.096 226.545,589.763 228,573.5C 233.268,561.044 242.434,553.711 255.5,551.5 Z"/></g>
<g><path style="opacity:1" fill="#fdfdfd" d="M 267.5,592.5 C 298.167,592.5 328.833,592.5 359.5,592.5C 359.5,602.5 359.5,612.5 359.5,622.5C 328.833,622.5 298.167,622.5 267.5,622.5C 267.5,612.5 267.5,602.5 267.5,592.5 Z"/></g>
<g><path style="opacity:1" fill="#a6a6a6" d="M 522.5,629.5 C 523.496,643.323 523.829,657.323 523.5,671.5C 524.833,671.5 526.167,671.5 527.5,671.5C 526.081,672.451 524.415,672.784 522.5,672.5C 522.5,658.167 522.5,643.833 522.5,629.5 Z"/></g>
</svg>
